<svg id="Layer_1" data-name="Layer 1" xmlns="http://www.w3.org/2000/svg" viewBox="0 0 50 50"><defs><style>.cls-2{fill:#231f20}</style></defs><path d="M44.52 9.9v-.02H6.48v.02H2.97v5.84h46.56V9.9h-5.01zM7.98 21.47h36.54v20.69H7.98z" fill="#ffcd00"/><path class="cls-2" d="M48.53 7.41h-7.16V5.89a2.33 2.33 0 00-4.65 0v1.52H13.21V5.89a2.33 2.33 0 00-4.65 0v1.52H1a.5.5 0 00-.5.5v38a.5.5 0 00.5.5h47.53a.5.5 0 00.5-.5v-38a.5.5 0 00-.5-.5zm-9.48-2.84a1.32 1.32 0 011.32 1.32v2.67a1.33 1.33 0 01-2.65 0V5.89a1.32 1.32 0 011.33-1.32zm-28.16 0a1.32 1.32 0 011.32 1.32v2.67a1.33 1.33 0 01-2.65 0V5.89a1.33 1.33 0 011.33-1.32zM8.56 8.41v.15a2.33 2.33 0 004.65 0v-.15h23.51v.15a2.33 2.33 0 004.65 0v-.15H48v5.83H1.47V8.41zm-7.09 37V15.24H48v30.19z"/><path class="cls-2" d="M43.52 19H6a.5.5 0 00-.5.5v21.66a.5.5 0 00.5.5h37.52a.5.5 0 00.5-.5V19.47a.5.5 0 00-.5-.47zm-37 8.34H13v6H6.48zm7.52 0h6.5v6H14zm14-1H21.5V20H28zM29 20h6.5v6.34H29zm-1 7.34v6h-6.5v-6zm-7.5-1H14V20h6.5zm0 8v6.34H14v-6.36zm1 0H28v6.34h-6.5zm7.5 0h6.5v6.34H29zm0-1v-6h6.5v6zm7.5-6H43v6h-6.5zm6.52-1H36.5V20H43zM13 20v6.34H6.48V20zM6.48 34.32H13v6.34H6.48zm30 6.34v-6.34H43v6.34z"/></svg>